<?xml version="1.0" encoding="UTF-8"?>
<!DOCTYPE svg PUBLIC "-//W3C//DTD SVG 1.1//EN" "http://www.w3.org/Graphics/SVG/1.1/DTD/svg11.dtd">
<!-- Creator: CorelDRAW -->
<svg xmlns="http://www.w3.org/2000/svg" xml:space="preserve" width="1.27268in" height="0.674157in" version="1.1" style="shape-rendering:geometricPrecision; text-rendering:geometricPrecision; image-rendering:optimizeQuality; fill-rule:evenodd; clip-rule:evenodd"
viewBox="0 0 207.64 109.99"
 xmlns:xlink="http://www.w3.org/1999/xlink"
 xmlns:xodm="http://www.corel.com/coreldraw/odm/2003">
 <defs>
  <style type="text/css">
   <![CDATA[
    .fil0 {fill:#ED3237}
   ]]>
  </style>
 </defs>
 <g id="_1502954836288">
  <g id="Sremeas.cdr">
   <path class="fil0" d="M18.06 26.31c-2.31,-1.62 -6.91,0.09 -4.66,3.52 1.58,2.51 4.34,0.63 3.5,4.37 -0.26,1.14 -1.07,2.17 -2.58,2.72 -1.3,0.5 -2.69,0.92 -4.19,0.92 -2.15,0 -3.77,-0.3 -4.92,-0.85 -1.36,-0.65 -1.57,-1.12 -1.97,-3.02 0.89,-0.07 1.43,0.47 1.95,0.85 0.74,0.55 1.83,0.37 2.62,0 2.72,-1.27 1.96,-6.38 -1.57,-6.38 -1.57,0 -3.15,0.55 -4.14,1.95 -0.98,1.4 -1.18,3.17 -1.18,4.97 0,1.48 0.37,2.67 1.12,3.75 1.63,2.37 4.29,3.85 7.07,3.85 4.85,0 8.75,-2.83 10.18,-7.74 0.69,-2.36 0.98,-7.36 -1.23,-8.92zm62.32 6.24l0.02 0.02c6.08,7.25 13.08,7.31 20.69,2.58 0.47,0.67 1.23,1.1 2.08,1.1 0.83,0 1.58,-0.41 2.05,-1.06 7.59,4.69 14.57,4.62 20.63,-2.61l0.02 -0.02 -0.02 -0.02c-3.07,-2.99 -6.2,-4.47 -9.36,-4.68 1.55,-2.14 2.49,-4.92 2.74,-8.44l0 -0.03 -0.02 -0c-3.23,-0.32 -5.92,0.16 -8.14,1.34 -0.59,-1.42 -2.01,-2.38 -3.54,-2.61 -0.75,-2.28 -2.22,-4.51 -4.52,-6.66l-0.02 -0.02 -0.01 0.01c-2.28,2.17 -3.73,4.41 -4.45,6.7 -1.45,0.29 -2.78,1.22 -3.35,2.58 -2.22,-1.18 -4.91,-1.66 -8.15,-1.34l-0.02 0 0 0.03c0.25,3.51 1.19,6.3 2.74,8.44 -3.16,0.2 -6.28,1.69 -9.36,4.68l-0.02 0.02zm39.86 0.29l0 0 0.01 0.01 -0.01 0.01c-4.59,5.28 -9.92,4.87 -15.73,0.85l-0.01 -0.01 0.02 -0.01 0.03 -0.02c4.2,-0.41 7.65,-1.62 10.16,-3.83 1.87,0.32 3.72,1.29 5.54,3zm-9 -9.52l0 0c1.18,-0.36 2.5,-0.5 4,-0.38l0.01 0 -0 0.02c-0.18,2.01 -0.68,3.67 -1.49,5.03 -0.04,0.07 -0.09,0.14 -0.13,0.21l-0.01 0.02c-0.12,0.2 -0.26,0.39 -0.39,0.57l-0 0c-0.03,0.05 -0.07,0.09 -0.11,0.14l-0.05 0.07c-0.04,0.04 -0.07,0.09 -0.11,0.13l-0 0c-0.05,0.06 -0.11,0.13 -0.16,0.19l-0 0c-0.04,0.04 -0.08,0.08 -0.11,0.13l-0.06 0.06 -0 0.01 -0.11 0.12 -0.06 0.06 -0 0c-0.04,0.04 -0.08,0.08 -0.12,0.11l-0 0 -0.06 0.06 -0.09 0.09 -0.05 0.05 -0.11 0.1 -0.06 0.06 -0.01 0.01 -0.12 0.1 -0.01 0.01 -0.07 0.05 -0 0 -0.11 0.09 -0.05 0.03 -0.11 0.08 -0 0 -0.07 0.05 -0.01 0.01 -0.12 0.09 -0.01 0 -0.07 0.05 -0 0 -0.12 0.08 -0.08 0.05 -0.11 0.07 -0.1 0.06 -0.09 0.06 -0.12 0.07 -0.1 0.06 -0.12 0.07 -0.07 0.04 -0.14 0.08 -0.08 0.04 -0.13 0.07 -0.09 0.04 -0.14 0.06 -0.03 0.01c0,-0 0.01,-0 0.01,-0l-0.04 0.02 0.03 -0.01c-1.17,0.54 -2.51,0.91 -3.99,1.12l-0.02 0 -0.02 0 -0.02 0 -0.07 0.01 -0.02 0 -0 0 -0.12 0.02 -0.02 0 -0.02 0 -0.02 0 -0.02 0 -0 0 -0.02 0 -0.02 0 -0.02 0 -0.19 0.02 -0.03 0 -0 0 -0.02 0 -0.02 0 -0.17 0.02 -0.02 0 -0.03 0 -0.05 0 -0.03 0 -0.2 0.02 -0.02 0 -0.03 0 -0.03 0 -0.23 0.02 -0.03 0 -0.02 0 -0.02 0 0.01 -0.02c0,-0.01 0.01,-0.02 0.01,-0.03 3.37,-3.18 6.5,-6.36 7.13,-9.54zm-8.24 -8.54l0 0 0.01 -0.01 0.01 0.01c1.15,1.12 2.03,2.26 2.66,3.42 -1.02,0.27 -1.96,0.92 -2.57,2.07 -0.64,-1.2 -1.64,-1.86 -2.72,-2.11 0.62,-1.15 1.48,-2.28 2.6,-3.38zm-3.11 6.17l0 0c1.61,0 2.42,0.76 3.23,2.27 0.81,-1.51 1.61,-2.27 3.23,-2.27 1.78,0 3.23,1.35 3.23,3.02 0,3.02 -3.23,6.05 -6.45,9.07 -3.23,-3.02 -6.45,-6.05 -6.45,-9.07 0,-1.67 1.45,-3.02 3.23,-3.02zm-8.89 1.99l0 0c1.5,-0.12 2.82,0.02 4,0.37 0.63,3.18 3.76,6.35 7.13,9.53 0,0.01 0.01,0.03 0.01,0.04l0 0.02 -0.02 -0 -0.02 -0 -0.03 -0 -0.2 -0.02 -0.03 -0 -0.02 -0 -0 0 -0.03 -0 -0.03 -0 -0.17 -0.02 -0.03 -0 -0.02 -0 -0.05 -0 -0.02 -0 -0.03 -0 -0.17 -0.02 -0.02 -0 -0 -0 -0.04 -0 -0 -0 -0.02 -0 -0.02 -0 -0.15 -0.02 -0.02 -0 -0.07 -0.01 -0.02 -0 -0.05 -0.01 -0.02 -0 -0.02 -0 -0.05 -0.01 -0.02 -0 -0.02 -0 -0.07 -0.01 -0.02 -0 -0.02 -0 -0.02 -0c-1.45,-0.21 -2.77,-0.57 -3.93,-1.1l-0.01 -0.01 -0.01 -0.01 -0.03 -0.01 -0.01 -0.01 -0.01 -0.01 -0.13 -0.06 0.22 0.1 -0.53 -0.26 -0.01 -0.01 -0.08 -0.04 -0.14 -0.08 -0.11 -0.06 0.02 0.01 -0.03 -0.02 0.01 0.01 -0.07 -0.04 -0.15 -0.09 -0.06 -0.03c-0.05,-0.03 -0.1,-0.06 -0.15,-0.09l-0.05 -0.03 -0.14 -0.09 -0.05 -0.03 -0.15 -0.1 -0.04 -0.03c-0.05,-0.04 -0.1,-0.07 -0.15,-0.11l-0.05 -0.04 -0.13 -0.1 -0.07 -0.06 -0.13 -0.1 -0.04 -0.04c-0.04,-0.04 -0.09,-0.08 -0.13,-0.12l-0.04 -0.04 -0.12 -0.11 -0.05 -0.05c-0.04,-0.04 -0.08,-0.07 -0.12,-0.11l-0.06 -0.06 -0.09 -0.1 -0.07 -0.07 -0.09 -0.09 -0.08 -0.08 -0.08 -0.09 -0.08 -0.1 -0.06 -0.07 -0.08 -0.09 -0.08 -0.1 -0.09 -0.11 -0.01 -0.02 -0.04 -0.06 -0.08 -0.11 -0.01 -0.01 -0.04 -0.06 -0 -0 -0.08 -0.12 -0.04 -0.06c-0.03,-0.04 -0.06,-0.08 -0.08,-0.13l-0.04 -0.06c-0.04,-0.06 -0.08,-0.13 -0.12,-0.19 -0.8,-1.36 -1.31,-3.02 -1.49,-5.03l-0 -0.02 0.01 -0zm5.18 8.47l0 0 -0.01 -0.01 -0.04 -0.02 0.06 0.03zm-10.17 1.43l0 0c1.82,-1.71 3.67,-2.68 5.55,-3 2.51,2.21 5.96,3.41 10.16,3.83l0.03 0.02 0.02 0.01 -0.02 0.01c-5.81,4.02 -11.14,4.43 -15.73,-0.85l-0.01 -0.01 0.01 -0.01zm96.84 -2c-16.68,-18.53 -46.19,-30.84 -79.82,-30.84 -33.62,0 -63.13,12.31 -79.82,30.84 19.53,-15.01 48.04,-24.47 79.82,-24.47 31.77,0 60.29,9.46 79.82,24.47zm-69.69 39.31c-0.38,1.21 -0.66,2.07 -1.96,3.46 1.63,1.9 3.87,2.78 6,2.64 2.64,-0.17 5.11,-1.87 6,-5.09 -1.67,0.88 -3.95,1.45 -6,1.24 -1.64,-0.17 -3.14,-0.84 -4.04,-2.25zm78.03 -9.85c0.36,-1.64 1.85,-4.87 3.76,-4.87 1.28,0 2.96,1.4 5.21,1.4 3.48,0 5.97,-2.14 7.47,-7.69 -0.75,0.5 -1.6,0.76 -2.56,0.76 -1.3,0 -2.76,-0.43 -4.4,-1.3 -1.09,-0.58 -2.15,-1.3 -3.17,-2.16 -0.75,1.37 -2.22,3.08 -4.4,5.1 -0.68,0.65 -1.67,1.53 -2.97,2.61l0 15.21c0.83,-0.37 1.82,-0.9 2.58,-1.17 2.98,-1.05 10.7,-1.26 11.05,3.04 0.69,8.61 -14.06,8.95 -20.15,4.81l3.55 -8.09c-0.97,-2.74 -3.57,-6.04 -6.53,-7.29 -3.98,-1.66 -9.29,-2.41 -13.61,-0.62 -1.78,-1.37 -4.3,-2.35 -4.82,-3.91 0.34,-0.24 2.41,-1.1 3.54,-0.88 1.79,0.34 4.03,1.34 6.17,1.59 1.58,0.19 2.96,-0.1 4.39,-1.46 1.27,-1.21 2.35,-3.37 3.1,-6.26 -0.75,0.5 -1.64,0.76 -2.66,0.76 -1.3,0 -2.76,-0.43 -4.4,-1.3 -1.09,-0.58 -2.15,-1.3 -3.17,-2.16 -0.68,1.32 -2.76,3.39 -6.24,6.24 -1.09,0.87 -2.7,2.11 -4.81,3.71 2.85,1.32 3.53,3 5.14,5.7 -0.37,0.32 -0.78,0.6 -1.12,0.95 -3.61,3.69 -4.56,7.21 -4.63,12.42 -0.05,3.32 1.06,6.36 3.17,9.17 0.51,0.67 1.01,1.25 1.51,1.74 3.29,3.21 7.02,2.14 9.75,-1.32 1.71,-2.16 2.41,-4.51 2.41,-7.03 0,-2.31 -0.16,-4.55 -1.49,-6.11 -1.69,-1.99 -5.06,-2.71 -7.39,-0.55 -2.77,2.56 -2.33,6.64 1.71,6.69 0.47,0 1.03,-0.18 1.84,-0.69 1.14,-1.33 2.16,-1.24 2.37,-1.24 1.34,-0 3.05,2.22 1.03,3.59 -0.89,0.72 -2.76,1.7 -5.64,1.68 -2.96,-0.03 -6.15,-3.39 -6.15,-6.07 0,-2.52 0.83,-4.47 2.2,-5.84 1.64,-1.59 4.26,-2.85 7.81,-2.85 4.23,0 7.44,1.15 9.69,3.47 0.68,0.72 1.66,1.57 2.35,3.16l-4.3 10.69c0.89,1.08 2.22,2.07 4.61,2.99 2.39,0.9 4.5,1.35 6.34,1.35 9.67,0 16.88,-7.8 16.88,-17.92 0,-8.47 -7.29,-14.14 -15.01,-10.07zm-186.55 -4.7c1.8,0 3.29,1.1 5.14,1.1 3.44,0 5.92,-2.14 7.4,-7.69 -0.75,0.5 -1.59,0.76 -2.52,0.76 -1.3,0 -2.75,-0.43 -4.37,-1.3 -1.07,-0.58 -2.13,-1.3 -3.14,-2.16 -0.96,1.73 -2.76,3.78 -5.42,6.16 -0.41,0.36 -0.99,0.83 -1.74,1.41l0 20.55c0.55,3.1 1.06,5.41 1.53,6.92 1.64,4.54 3.85,6.81 6.65,6.81 2.73,0 4.74,-1.95 6.04,-5.84 0.89,-2.67 1.33,-5.59 1.33,-8.76 0,-3.68 0.06,-6.35 -0.42,-8 -0.92,-2.68 -1.76,-3.63 -4.45,-3.77 -4.89,-0.25 -6.64,5.5 -4.16,9.18 0.67,1 1.61,1.51 3.38,1.51 -0.69,-3.37 4.04,-2.52 4.32,-1.28 0.75,3.23 -2.24,6.92 -5.33,6.92 -2.66,0 -4.77,-2.41 -5.72,-5 -0.61,-1.73 -0.92,-4.58 -0.92,-8.54 0,-2.16 0.04,-4.38 0.41,-5.99 0.37,-1.62 1.16,-2.84 1.97,-2.98zm48.77 35.12c-0.38,0 -0.84,0.02 -1.33,0.07 -2.59,0.26 -6.3,1.3 -6.3,4.06 0,2.75 3.65,3.67 6.3,2.57 0.72,-0.3 1.37,-0.75 1.86,-1.35 1.8,-2.24 3.46,-1.84 5.1,-1.22 -0.81,4.12 -3.63,6.32 -6.96,7.08 -3.91,0.89 -8.53,-0.21 -11.44,-2.54 -1.7,-1.35 -3.75,-3.67 -6.15,-6.38 0.61,-0.72 1.43,-1.62 2.46,-2.7 0.68,-0.86 1.02,-1.91 1.02,-3.14l0 -22.06c0,-3.47 -3.37,-6.44 -7.06,-6.44 -1.86,0 -4.45,0.34 -6.03,1.51 0.39,-1.79 1.76,-4.6 3.88,-4.6 1.43,0 2.7,1.12 4.81,1.12 3.41,0 5.93,-2.14 7.57,-7.69 -0.75,0.5 -1.64,0.76 -2.66,0.76 -1.3,0 -2.76,-0.43 -4.4,-1.3 -1.09,-0.58 -2.15,-1.3 -3.17,-2.16 -0.96,1.8 -2.76,3.86 -5.42,6.16 -0.41,0.36 -1.02,0.83 -1.84,1.41l0 15.38c2.52,-1.51 4.43,-2.27 5.73,-2.27 2.52,0 4.37,1.68 5.53,3.77l0 14.81c0,2.96 -1.16,5.37 -3.48,7.24 -1.23,1.01 -2.97,2.2 -5.22,3.57 0,1.52 1.98,3.97 5.93,7.36 4.84,4.18 9.79,6.27 14.84,6.27 1.85,0 3.55,-0.24 5.12,-0.73 2.14,-0.67 4.01,-1.79 5.63,-3.38 2.52,-2.45 3.79,-5.3 3.79,-8.54 0,-4.82 -4.05,-6.62 -8.08,-6.62zm36.87 -41c-1.3,0 -2.76,-0.43 -4.4,-1.3 -1.09,-0.58 -2.15,-1.3 -3.17,-2.16 -0.75,1.37 -2.22,3.08 -4.4,5.1 -0.68,0.65 -1.67,1.53 -2.97,2.61l0 0.15 -0.03 0.03 0 15.21c0.83,-0.37 1.82,-0.9 2.58,-1.17 2.98,-1.05 10.7,-1.26 11.05,3.04 0.04,0.53 0.03,1.02 -0.04,1.49 -1.23,6.96 -14.35,7 -20.05,3.17l3.49 -7.94 -0.02 -0.06 0.05 -0.12c-0.97,-2.74 -3.57,-6.04 -6.53,-7.29 -3.98,-1.66 -9.29,-2.41 -13.61,-0.62l-0.14 -0.1c-1.72,-1.28 -4.04,-2.23 -4.63,-3.68 0.5,-0.29 2.4,-1.03 3.46,-0.83 0.37,0.07 0.76,0.17 1.17,0.29 1.55,0.44 3.31,1.11 5,1.31 1.58,0.19 2.96,-0.1 4.38,-1.46 1.27,-1.21 2.35,-3.37 3.1,-6.26l-0.02 0.01 0.05 -0.19c-0.75,0.5 -1.64,0.76 -2.66,0.76 -1.3,0 -2.76,-0.43 -4.4,-1.3 -1.09,-0.58 -2.15,-1.3 -3.17,-2.16 -0.36,0.7 -1.12,1.62 -2.28,2.75 -1.01,0.99 -2.33,2.15 -3.96,3.49 -1.09,0.86 -2.7,2.11 -4.81,3.71l0.12 0.06 -0.15 0.12c2.81,1.3 3.51,2.95 5.08,5.6 -0.35,0.29 -0.72,0.55 -1.03,0.88 -2.57,2.63 -3.79,5.17 -4.31,8.29 -0.23,1.32 -0.33,2.74 -0.36,4.31 -0.05,3.32 1.06,6.36 3.17,9.17 0.51,0.67 1.01,1.25 1.51,1.74 1.53,1.5 3.16,2.06 4.73,1.89 1.81,-0.2 3.56,-1.36 5.02,-3.22 1.26,-1.59 1.97,-3.28 2.26,-5.07 0.12,-0.7 0.18,-1.41 0.18,-2.14 0,-2.31 -0.16,-4.55 -1.49,-6.11 -1.37,-1.61 -3.84,-2.39 -5.97,-1.48 -0.5,0.21 -0.98,0.52 -1.42,0.93 -0.99,0.91 -1.57,2.02 -1.72,3.07 -0.36,1.9 0.65,3.65 3.14,3.79 0.09,0.01 0.17,0.01 0.26,0.01 0.47,0 1.03,-0.18 1.84,-0.69 1.14,-1.33 2.16,-1.24 2.37,-1.24 0.95,-0 2.07,1.1 1.95,2.23 -0.09,0.41 -0.37,0.82 -0.89,1.18 -0.88,0.71 -2.71,1.68 -5.54,1.68l-0.11 0c-2.96,-0.03 -6.15,-3.4 -6.15,-6.07 0,-0.58 0.04,-1.12 0.13,-1.64 0.3,-1.66 1.02,-3 2.04,-4.02 1,-0.97 2.37,-1.82 4.09,-2.33 1.1,-0.33 2.34,-0.52 3.72,-0.52 4.23,0 7.44,1.15 9.69,3.47 0.68,0.71 1.64,1.56 2.33,3.11l-4.25 10.56 0.03 0.03 -0.06 0.14c0.89,1.08 2.22,2.07 4.61,2.99 2.39,0.9 4.5,1.35 6.34,1.35 8.53,0 15.13,-6.06 16.59,-14.42 0.02,-0.09 0.03,-0.18 0.05,-0.27l0 -0c0.18,-1.1 0.28,-2.24 0.28,-3.4 0,-8.46 -7.28,-14.13 -15,-10.08 0.42,-1.68 1.88,-4.68 3.72,-4.68 1.28,0 2.96,1.4 5.21,1.4 3.48,0 5.97,-2.14 7.47,-7.69l-0.02 0.01 0.05 -0.19c-0.75,0.5 -1.6,0.76 -2.56,0.76zm33.18 9.4c-2.11,-0.21 -4.4,0.1 -6.26,0.79 -0.27,0.1 -0.53,0.21 -0.78,0.32 0.14,-0.62 0.41,-1.39 0.78,-2.11 0.69,-1.34 1.73,-2.55 2.93,-2.55 1.42,0 3.26,1.15 5.08,1.15 3.05,0 5.28,-1.89 6.79,-6.45 0.14,-0.43 0.28,-0.89 0.41,-1.37 -0.13,0.11 -0.27,0.2 -0.41,0.29 -0.7,0.45 -1.45,0.68 -2.25,0.68 -1.3,0 -2.73,-0.47 -4.3,-1.41 -0.82,-0.5 -1.84,-1.26 -3.07,-2.27 -0.75,1.46 -2.22,3.19 -4.4,5.24 -0.25,0.23 -0.5,0.5 -0.78,0.79 -0.5,0.52 -1.12,1.12 -1.99,1.83l0 13.85c0.55,-0.32 1.23,-0.58 1.99,-0.77 4.42,-1.12 11.48,0.07 11.1,4.87 -0.35,4.4 -5.68,7.16 -11.1,7.26 -4.22,0.08 -8.5,-1.46 -10.51,-5.12 1.5,-2.02 2.71,-3.82 3.32,-5.08 0.61,-1.26 0.92,-2.32 0.92,-3.19 0,-4.45 -2.58,-6.53 -5.68,-6.88 -2.67,-0.3 -5.66,0.38 -7.21,1.36 0.4,-1.83 1.61,-4.77 3.71,-4.77 1.52,0 2.71,1.12 4.84,1.12 3.46,0 5.9,-2.18 7.39,-7.59 -0.75,0.5 -1.59,0.76 -2.52,0.76 -1.3,0 -2.75,-0.47 -4.37,-1.39 -1.07,-0.61 -2.13,-1.37 -3.14,-2.29 -0.68,1.35 -2.11,3.05 -4.3,5.05 -0.68,0.65 -1.64,1.48 -2.87,2.49l0 14.18c2.08,-0.77 4.41,-1.42 6.82,-1.2 5.73,0.52 3.44,4.88 0.04,6.42 -0.32,0.14 -0.68,0.28 -1.07,0.42 -1.37,0.47 -3.2,0.87 -5.48,1.21 1.23,4.04 3.46,7.25 6.7,9.62 3.24,2.38 6.87,3.57 10.9,3.57 0.86,0 1.69,-0.06 2.49,-0.18 4.21,-0.64 7.57,-2.96 10.09,-6.96 2.77,-4.3 4.45,-10.4 3.04,-15.57 -1.05,-3.86 -3.49,-5.77 -6.87,-6.11zm28 -5.36c0,-0.64 -0.4,-1.77 -2.99,-3.35 -4.57,-2.81 -6.92,-4.25 -7.06,-4.33 -1.84,1.44 -3.75,3.03 -5.73,4.76 -1.85,1.64 -3.08,2.72 -3.68,3.23 -0.22,0.19 -0.35,0.3 -0.41,0.34l0.31 1.4 0.1 -0.06c4.54,-2.5 10.06,-1.45 13.85,1.73 2.96,2.49 4.05,6.08 4.05,8.82 0,2.24 -1.77,4.18 -5.32,5.84 -3.55,1.66 -5.32,3.1 -5.32,4.33 0,2.45 1.38,4.78 4.14,6.97 2.76,2.2 4.21,3.77 4.35,4.7 0.75,0 1.71,-0.51 2.87,-1.51 1.16,-1 0.84,-2.21 0.84,-3.57l0 -29.31zm-1.86 23.62l-0.02 -5.31c-0.81,0.12 -2.29,0.71 -2.45,1.89 -0.07,1.52 1.13,3.05 2.47,3.42z"/>
  </g>
 </g>
</svg>
